<?xml version="1.0" encoding="UTF-8"?>
<svg xmlns="http://www.w3.org/2000/svg" viewBox="0 0 538.1 180.85">
  <defs>
    <style>
      .cls-1 {
        fill: #3b82f6;
        opacity: 0.5;
        stroke-width: 0px;
      }

      .cls-2 {
        isolation: isolate;
      }

      .cls-3 {
        mix-blend-mode: soft-light;
      }
    </style>
  </defs>
  <g class="cls-2">
    <g id="Layer_2" data-name="Layer 2">
      <g id="Layer_2-2" data-name="Layer 2">
        <g class="cls-3">
          <g>
            <polygon class="cls-1" points="279.07 141.93 278.9 141.82 247.67 121.27 247.69 121.07 249.86 83.95 250.54 83.99 248.38 120.92 279.11 141.15 312 124.65 314.16 87.72 314.85 87.76 312.66 125.08 312.48 125.17 279.07 141.93"/>
            <polygon class="cls-1" points="221.59 75.19 208.04 66.27 208.42 65.7 221.96 74.62 221.59 75.19"/>
            <polygon class="cls-1" points="250.02 84.25 236.31 75.23 237.27 58.85 237.95 58.89 237.01 74.88 250.39 83.69 250.02 84.25"/>
            <polygon class="cls-1" points="314.21 88 311.03 72.56 322.66 62.23 323.11 62.73 311.77 72.81 314.8 87.48 329.01 92.19 340.34 82.11 340.8 82.62 329.16 92.96 314.21 88"/>
            <polygon class="cls-1" points="336.37 129.58 333.18 114.15 344.82 103.8 345.27 104.31 333.93 114.39 336.95 129.06 351.35 133.84 351.14 134.48 336.37 129.58"/>
            <polygon class="cls-1" points="344.75 104.32 340.2 82.24 356.89 67.4 357.35 67.9 340.94 82.49 345.33 103.8 365.98 110.65 382.39 96.06 382.84 96.57 366.14 111.41 344.75 104.32"/>
            <polygon class="cls-1" points="356.78 67.63 357.75 51.07 357.93 50.98 372.75 43.55 386.77 52.77 385.8 69.33 385.12 69.29 386.07 53.13 372.7 44.33 358.41 51.5 357.46 67.67 356.78 67.63"/>
            <polygon class="cls-1" points="300.63 61.17 301.39 48.32 313.06 42.46 323.98 49.65 323.23 62.5 322.55 62.46 323.28 50 313.02 43.25 302.04 48.75 301.31 61.21 300.63 61.17"/>
            <polygon class="cls-1" points="398.5 84.49 385.21 69.54 385.72 69.09 398.74 83.74 417.76 79.82 423.94 61.21 424.58 61.43 418.28 80.41 398.5 84.49"/>
            <polygon class="cls-1" points="429.05 96.81 417.74 80.31 418.3 79.93 429.39 96.11 448.94 94.59 449 95.27 429.05 96.81"/>
            <polygon class="cls-1" points="393.64 113.01 382.33 96.51 382.89 96.12 393.98 112.3 413.53 110.79 413.58 111.47 393.64 113.01"/>
            <polygon class="cls-1" points="392.31 132.41 393.47 112.63 394.15 112.68 392.99 132.45 392.31 132.41"/>
            <polygon class="cls-1" points="424.33 61.65 424.19 60.99 443.4 57.03 449.58 38.41 450.22 38.63 443.92 57.62 424.33 61.65"/>
            <polygon class="cls-1" points="482.52 83.11 483.42 67.69 470.69 59.3 456.88 66.23 456.57 65.62 470.73 58.52 484.13 67.33 483.2 83.15 482.52 83.11"/>
            <polygon class="cls-1" points="535.57 102.02 536.48 86.6 523.74 78.22 509.93 85.14 509.63 84.53 523.79 77.43 537.18 86.25 536.25 102.06 535.57 102.02"/>
            <polygon class="cls-1" points="495.88 92.11 482.67 83.41 483.05 82.84 495.93 91.32 509.63 84.54 509.93 85.14 495.88 92.11"/>
            <polygon class="cls-1" points="431.75 121.4 431.79 120.72 447.21 121.63 455.59 108.89 448.67 95.08 449.27 94.78 456.37 108.94 447.56 122.33 431.75 121.4"/>
            <polygon class="cls-1" points="456.54 66.21 443.48 57.61 443.85 57.04 456.91 65.64 456.54 66.21"/>
            <polygon class="cls-1" points="394.97 43.39 394.83 42.72 414.23 38.72 414.37 39.39 394.97 43.39"/>
            <polygon class="cls-1" points="288.56 79.51 289.32 66.66 300.82 60.89 301.12 61.49 289.97 67.09 289.24 79.55 288.56 79.51"/>
            <polygon class="cls-1" points="209.63 102.11 202.31 93.87 202.81 93.42 210.13 101.66 209.63 102.11"/>
            <polygon class="cls-1" points="133.14 107.87 138.31 92.29 154.57 88.94 165.48 101.2 164.97 101.65 154.32 89.68 138.83 92.88 133.78 108.08 133.14 107.87"/>
            <polygon class="cls-1" points="266.24 112.72 266.37 112.05 277.58 114.14 285 105.48 285.52 105.92 277.84 114.88 266.24 112.72"/>
            <polygon class="cls-1" points="247.64 122.12 247.33 121.52 265.97 112.16 267.19 91.35 267.87 91.38 266.63 112.6 266.45 112.68 247.64 122.12"/>
            <polygon class="cls-1" points="347.36 156.57 346.84 156.12 355.19 146.38 350.92 134.27 351.57 134.04 355.96 146.52 347.36 156.57"/>
            <polygon class="cls-1" points="364.96 124.03 365.72 111.01 366.4 111.05 365.64 124.06 364.96 124.03"/>
            <polygon class="cls-1" points="198.66 140.15 179.66 127.65 180.03 127.08 198.7 139.37 218.5 129.44 219.81 107.12 220.49 107.16 219.16 129.87 218.98 129.96 198.66 140.15"/>
            <polygon class="cls-1" points="164.96 127.55 164.96 126.87 179.65 127.02 187.03 114.54 179.91 101.92 165.22 101.77 165.23 101.09 180.31 101.24 187.81 114.55 180.03 127.71 164.96 127.55"/>
            <rect class="cls-1" x="228.88" y="67.53" width=".68" height="14.89" transform="translate(151.71 303.35) rotate(-89.37)"/>
            <polygon class="cls-1" points="187.42 114.89 187.42 114.21 202.11 114.36 209.59 101.71 210.17 102.06 202.5 115.04 187.42 114.89"/>
            <polygon class="cls-1" points="297.11 177.88 277.38 164.9 277.39 164.7 278.75 141.52 279.43 141.56 278.08 164.55 297.15 177.1 317.74 166.77 318.04 167.38 297.11 177.88"/>
            <polygon class="cls-1" points="260.86 179.99 252.13 170.17 252.64 169.72 261.11 179.25 273.39 176.71 277.41 164.62 278.05 164.83 273.92 177.3 260.86 179.99"/>
            <polygon class="cls-1" points="175.14 82.97 174.84 82.36 207.9 65.77 210.06 29.04 179.32 8.81 146.26 25.4 145.95 24.79 179.37 8.03 179.53 8.13 210.76 28.68 210.75 28.88 208.56 66.2 208.38 66.29 175.14 82.97"/>
            <polygon class="cls-1" points="122.62 61.3 122.31 60.7 144.33 49.65 145.76 25.27 125.35 11.84 103.34 22.88 103.03 22.27 125.39 11.05 146.46 24.92 146.45 25.11 144.98 50.09 144.81 50.17 122.62 61.3"/>
            <polygon class="cls-1" points="98.98 97.21 98.68 96.61 120.69 85.56 122.12 61.18 101.71 47.75 79.7 58.79 79.4 58.18 101.76 46.96 122.82 60.82 122.81 61.02 121.34 86 121.17 86.08 98.98 97.21"/>
            <polygon class="cls-1" points="18.85 150.38 3.77 120.33 3.88 120.17 22.37 92.08 56.13 94.07 71.21 124.12 70.6 124.42 55.7 94.72 22.72 92.79 4.56 120.38 19.46 150.08 18.85 150.38"/>
            <polygon class="cls-1" points="68.29 163.81 57.98 143.28 70.72 123.92 93.86 125.28 104.17 145.81 103.56 146.12 93.43 125.93 71.08 124.62 58.76 143.32 68.89 163.51 68.29 163.81"/>
            <polygon class="cls-1" points="56.06 94.7 55.76 94.09 78.12 82.87 99.02 96.63 98.64 97.19 78.07 83.65 56.06 94.7"/>
            <polygon class="cls-1" points="237.76 59.17 237.46 58.56 254.82 49.85 255.95 30.65 239.88 20.07 222.51 28.79 222.21 28.18 239.93 19.29 256.65 30.3 256.64 30.49 255.48 50.28 255.3 50.37 237.76 59.17"/>
            <polygon class="cls-1" points="202.22 93.63 202.96 81.04 192.42 74.11 192.8 73.54 203.66 80.69 202.9 93.67 202.22 93.63"/>
            <polygon class="cls-1" points="192.42 74.11 181.56 66.96 182.32 53.98 183 54.02 182.26 66.6 192.8 73.54 192.42 74.11"/>
            <polygon class="cls-1" points="386.68 53.17 386.16 52.73 394.64 42.83 395.16 43.27 386.68 53.17"/>
            <polygon class="cls-1" points="353.52 27.07 350.34 11.63 361.97 1.29 362.42 1.8 351.08 11.88 354.11 26.55 368.5 31.32 368.29 31.97 353.52 27.07"/>
            <rect class="cls-1" x="370.22" y="31.28" width=".68" height="13.03" transform="translate(8.53 125.4) rotate(-19.43)"/>
          </g>
          <g>
            <path class="cls-1" d="M308.46,123.3c.86-2.13,3.29-3.16,5.42-2.3s3.16,3.29,2.3,5.42-3.28,3.17-5.42,2.31-3.17-3.29-2.31-5.42Z"/>
            <path class="cls-1" d="M310.64,86.18c.86-2.13,3.28-3.16,5.42-2.3s3.16,3.29,2.3,5.42-3.28,3.17-5.42,2.31-3.16-3.29-2.3-5.42Z"/>
            <path class="cls-1" d="M341.18,102.5c.86-2.13,3.28-3.16,5.42-2.3s3.17,3.29,2.31,5.42-3.29,3.16-5.42,2.3-3.16-3.29-2.3-5.42Z"/>
            <path class="cls-1" d="M414.16,78.56c.86-2.13,3.29-3.17,5.42-2.3s3.16,3.29,2.3,5.42-3.29,3.16-5.42,2.31-3.16-3.29-2.3-5.42Z"/>
            <path class="cls-1" d="M492.04,90.16c.86-2.14,3.28-3.17,5.42-2.3s3.17,3.28,2.3,5.42-3.29,3.16-5.42,2.3-3.16-3.29-2.3-5.42Z"/>
            <path class="cls-1" d="M481.86,66.74c.43-1.06,1.63-1.57,2.69-1.14s1.57,1.63,1.14,2.69-1.63,1.57-2.69,1.14-1.57-1.63-1.14-2.68Z"/>
            <path class="cls-1" d="M521.85,77.05c.43-1.06,1.63-1.57,2.69-1.14s1.57,1.63,1.14,2.69-1.63,1.57-2.69,1.14-1.57-1.63-1.14-2.69Z"/>
            <path class="cls-1" d="M353.26,66.09c.86-2.13,3.28-3.16,5.42-2.3s3.16,3.29,2.3,5.42-3.29,3.17-5.42,2.3-3.16-3.29-2.3-5.42Z"/>
            <path class="cls-1" d="M364.63,110.45c.32-.79,1.22-1.17,2.01-.85s1.17,1.22.85,2.01-1.22,1.17-2.01.85-1.17-1.22-.85-2.01Z"/>
            <path class="cls-1" d="M392.38,112.08c.32-.79,1.21-1.17,2.01-.85s1.18,1.22.86,2.01-1.22,1.17-2.01.85-1.17-1.22-.85-2.01Z"/>
            <path class="cls-1" d="M442.23,56.74c.32-.79,1.22-1.17,2.01-.85s1.17,1.22.85,2.01-1.21,1.17-2.01.85-1.17-1.22-.86-2.01Z"/>
            <path class="cls-1" d="M469.28,58.33c.32-.79,1.22-1.17,2.01-.85s1.17,1.22.85,2.01-1.22,1.17-2.01.85-1.17-1.22-.85-2.01Z"/>
            <path class="cls-1" d="M275.23,139.98c.86-2.13,3.29-3.16,5.42-2.3s3.16,3.29,2.3,5.42-3.29,3.16-5.42,2.31-3.17-3.29-2.31-5.42Z"/>
            <path class="cls-1" d="M244.16,119.53c.86-2.13,3.29-3.16,5.42-2.3s3.16,3.29,2.3,5.42c-.86,2.13-3.29,3.17-5.42,2.31s-3.16-3.29-2.3-5.42Z"/>
            <path class="cls-1" d="M233.75,57.31c.86-2.13,3.28-3.17,5.42-2.3s3.16,3.29,2.3,5.42-3.29,3.16-5.42,2.3-3.16-3.29-2.3-5.42Z"/>
            <path class="cls-1" d="M198.7,92.09c.86-2.13,3.28-3.16,5.42-2.3s3.16,3.28,2.3,5.41-3.29,3.16-5.42,2.31-3.16-3.29-2.3-5.42Z"/>
            <path class="cls-1" d="M150.59,87.75c.86-2.13,3.28-3.17,5.42-2.3s3.16,3.29,2.3,5.42-3.29,3.16-5.42,2.3-3.16-3.29-2.3-5.42Z"/>
            <path class="cls-1" d="M118.61,59.44c.86-2.13,3.29-3.16,5.42-2.3s3.17,3.29,2.31,5.42-3.29,3.16-5.42,2.3-3.16-3.29-2.3-5.42Z"/>
            <path class="cls-1" d="M275.49,163.82c.5-1.24,1.91-1.84,3.15-1.34s1.84,1.91,1.34,3.15-1.9,1.84-3.15,1.34-1.84-1.91-1.34-3.15Z"/>
            <path class="cls-1" d="M283.02,104.79c.5-1.24,1.91-1.84,3.15-1.34s1.84,1.91,1.34,3.15-1.91,1.84-3.15,1.34-1.84-1.91-1.34-3.15Z"/>
            <path class="cls-1" d="M264.06,111.48c.5-1.24,1.91-1.84,3.15-1.34s1.84,1.91,1.34,3.15-1.91,1.84-3.15,1.34-1.84-1.91-1.34-3.15Z"/>
            <path class="cls-1" d="M216.59,128.75c.5-1.24,1.91-1.84,3.15-1.34s1.84,1.91,1.34,3.15-1.91,1.84-3.15,1.34-1.84-1.91-1.34-3.15Z"/>
            <path class="cls-1" d="M265.29,90.46c.5-1.24,1.91-1.84,3.15-1.34s1.84,1.91,1.34,3.15-1.91,1.84-3.15,1.34-1.84-1.91-1.34-3.15Z"/>
            <path class="cls-1" d="M217.9,106.24c.5-1.24,1.91-1.84,3.15-1.33s1.84,1.91,1.34,3.15-1.91,1.84-3.15,1.34-1.84-1.91-1.34-3.15Z"/>
            <path class="cls-1" d="M220.12,27.58c.5-1.24,1.91-1.84,3.15-1.34s1.84,1.91,1.34,3.15-1.91,1.84-3.15,1.34-1.84-1.91-1.34-3.15Z"/>
            <path class="cls-1" d="M254.06,29.56c.5-1.24,1.91-1.84,3.15-1.34s1.84,1.91,1.34,3.15-1.91,1.84-3.15,1.34-1.84-1.91-1.34-3.15Z"/>
            <path class="cls-1" d="M247.72,83.65c.5-1.24,1.91-1.84,3.15-1.34s1.84,1.91,1.34,3.15-1.91,1.84-3.15,1.34-1.84-1.91-1.34-3.15Z"/>
            <path class="cls-1" d="M143.86,24.19c.5-1.24,1.91-1.84,3.15-1.34s1.84,1.91,1.34,3.15-1.91,1.84-3.15,1.34-1.84-1.91-1.34-3.15Z"/>
            <path class="cls-1" d="M295.7,176.91c.32-.79,1.22-1.18,2.02-.85s1.18,1.22.85,2.01-1.22,1.18-2.01.86-1.18-1.22-.86-2.02Z"/>
            <path class="cls-1" d="M276.28,113.93c.32-.79,1.22-1.18,2.01-.86s1.18,1.22.86,2.02-1.22,1.18-2.02.86-1.17-1.22-.85-2.01Z"/>
            <path class="cls-1" d="M253.72,49.49c.32-.79,1.22-1.18,2.01-.86s1.18,1.23.86,2.02-1.22,1.18-2.02.86-1.17-1.22-.85-2.02Z"/>
            <path class="cls-1" d="M235.22,74.48c.32-.79,1.22-1.18,2.01-.86s1.18,1.22.86,2.02-1.22,1.17-2.01.85-1.18-1.22-.86-2.01Z"/>
            <path class="cls-1" d="M206.79,65.41c.32-.79,1.22-1.18,2.01-.86s1.18,1.22.86,2.02-1.22,1.17-2.02.85-1.17-1.22-.85-2.01Z"/>
            <path class="cls-1" d="M238.47,19.1c.32-.79,1.22-1.17,2.01-.85s1.18,1.22.86,2.01-1.22,1.18-2.02.86-1.18-1.22-.86-2.02Z"/>
            <path class="cls-1" d="M315.64,166.17c.5-1.24,1.91-1.84,3.15-1.34s1.84,1.91,1.34,3.15-1.91,1.84-3.15,1.34-1.84-1.91-1.34-3.15Z"/>
            <path class="cls-1" d="M334.42,128.42c.5-1.24,1.91-1.84,3.15-1.34s1.83,1.91,1.33,3.15-1.91,1.84-3.14,1.34-1.84-1.91-1.34-3.15Z"/>
            <path class="cls-1" d="M326.84,91.67c.5-1.24,1.91-1.84,3.15-1.34s1.84,1.91,1.34,3.15-1.91,1.84-3.15,1.34-1.84-1.91-1.34-3.15Z"/>
            <path class="cls-1" d="M298.73,60.29c.5-1.24,1.91-1.84,3.15-1.34s1.84,1.91,1.34,3.15-1.91,1.84-3.15,1.34-1.84-1.91-1.34-3.15Z"/>
            <path class="cls-1" d="M320.64,61.57c.5-1.24,1.91-1.84,3.15-1.34s1.84,1.91,1.34,3.15-1.91,1.84-3.15,1.34-1.84-1.91-1.34-3.15Z"/>
            <path class="cls-1" d="M380.37,95.41c.5-1.24,1.91-1.84,3.15-1.34s1.84,1.91,1.34,3.15-1.91,1.84-3.15,1.34-1.83-1.91-1.34-3.15Z"/>
            <circle class="cls-1" cx="424.26" cy="61.32" r="2.42" transform="translate(208.68 431.84) rotate(-68.03)"/>
            <path class="cls-1" d="M446.73,94.02c.5-1.24,1.91-1.84,3.15-1.34s1.84,1.91,1.34,3.15-1.91,1.84-3.15,1.34-1.84-1.91-1.34-3.15Z"/>
            <path class="cls-1" d="M412.43,38.3c.42-1.03,1.6-1.54,2.63-1.12s1.53,1.6,1.12,2.63-1.6,1.53-2.63,1.12-1.54-1.6-1.12-2.63Z"/>
            <path class="cls-1" d="M384.55,52.2c.42-1.04,1.59-1.54,2.63-1.12s1.53,1.59,1.12,2.63-1.6,1.53-2.63,1.12-1.54-1.59-1.12-2.63Z"/>
            <path class="cls-1" d="M259.83,179.15c.26-.64.97-.94,1.61-.69s.94.98.69,1.61-.98.94-1.61.68-.94-.98-.69-1.61Z"/>
            <path class="cls-1" d="M272.5,176.54c.26-.64.98-.94,1.62-.68s.94.98.69,1.61-.98.94-1.61.69-.95-.98-.69-1.62Z"/>
            <path class="cls-1" d="M250.14,169.04c.5-1.24,1.91-1.84,3.15-1.34s1.84,1.91,1.34,3.15-1.91,1.84-3.15,1.34-1.84-1.91-1.34-3.15Z"/>
            <path class="cls-1" d="M339.13,81.79c.32-.79,1.22-1.18,2.02-.86s1.18,1.22.86,2.02-1.22,1.17-2.02.85-1.18-1.22-.86-2.01Z"/>
            <path class="cls-1" d="M287.46,78.95c.32-.79,1.22-1.18,2.01-.86s1.18,1.23.86,2.02-1.22,1.18-2.02.86-1.18-1.22-.86-2.02Z"/>
            <path class="cls-1" d="M309.97,72.11c.32-.79,1.22-1.18,2.02-.86s1.18,1.22.86,2.02-1.22,1.18-2.01.86-1.18-1.22-.86-2.01Z"/>
            <path class="cls-1" d="M322.19,49.25c.32-.79,1.22-1.18,2.02-.86s1.18,1.22.86,2.02-1.22,1.17-2.02.85-1.18-1.22-.86-2.01Z"/>
            <path class="cls-1" d="M349.81,133.58c.32-.79,1.22-1.18,2.01-.86s1.18,1.22.86,2.02-1.22,1.18-2.01.86-1.17-1.22-.85-2.01Z"/>
            <path class="cls-1" d="M345.66,155.77c.32-.79,1.23-1.18,2.02-.86s1.18,1.22.86,2.02-1.22,1.17-2.01.85-1.18-1.22-.86-2.01Z"/>
            <path class="cls-1" d="M354.68,146.09c.2-.49.76-.73,1.25-.53s.73.76.53,1.25-.76.73-1.25.54-.73-.76-.53-1.26Z"/>
            <path class="cls-1" d="M351.57,25.9c.5-1.24,1.91-1.84,3.15-1.34s1.84,1.91,1.34,3.15-1.91,1.84-3.15,1.34-1.84-1.91-1.34-3.15Z"/>
            <path class="cls-1" d="M366.96,31.07c.32-.79,1.22-1.18,2.02-.86s1.18,1.22.86,2.02-1.22,1.18-2.01.86-1.18-1.22-.86-2.01Z"/>
            <path class="cls-1" d="M371.64,43.5c.24-.6.93-.89,1.53-.65s.9.93.65,1.53-.93.9-1.54.65-.89-.93-.65-1.54Z"/>
            <path class="cls-1" d="M356.99,50.85c.24-.61.93-.9,1.53-.65s.9.93.65,1.54-.93.89-1.53.65-.9-.93-.65-1.53Z"/>
            <path class="cls-1" d="M360.76.97c.32-.79,1.22-1.18,2.01-.86s1.18,1.22.86,2.01-1.22,1.17-2.02.85-1.17-1.22-.85-2.01Z"/>
            <path class="cls-1" d="M394.01,42.69c.2-.49.76-.73,1.25-.54s.73.76.53,1.26-.76.73-1.26.53-.73-.76-.53-1.25Z"/>
            <path class="cls-1" d="M449,38.16c.2-.49.76-.73,1.25-.53s.73.76.54,1.25-.76.73-1.26.53-.73-.76-.53-1.25Z"/>
            <path class="cls-1" d="M535.65,85.95c.26-.65,1-.96,1.65-.7s.96,1,.7,1.65-1,.97-1.65.7-.97-1-.7-1.66Z"/>
            <path class="cls-1" d="M535.05,101.69c.19-.48.74-.71,1.21-.52s.71.74.52,1.21-.74.71-1.21.52-.71-.74-.51-1.21Z"/>
            <path class="cls-1" d="M391.75,132.07c.2-.49.76-.73,1.25-.53s.73.76.54,1.25-.76.73-1.26.53-.73-.76-.53-1.26Z"/>
            <path class="cls-1" d="M412.66,110.77c.2-.49.76-.73,1.25-.53s.73.76.53,1.25-.76.73-1.25.54-.73-.76-.53-1.26Z"/>
            <path class="cls-1" d="M454.55,108.34c.32-.79,1.21-1.18,2.01-.86s1.17,1.22.85,2.01-1.22,1.17-2.01.85-1.17-1.22-.85-2.01Z"/>
            <path class="cls-1" d="M430.87,120.7c.2-.49.76-.73,1.25-.53s.73.76.53,1.26-.76.73-1.26.53-.73-.76-.53-1.25Z"/>
            <path class="cls-1" d="M364.4,123.68c.2-.5.76-.73,1.26-.53s.73.76.53,1.26-.76.73-1.25.53-.73-.76-.54-1.25Z"/>
            <path class="cls-1" d="M300.82,48.18c.2-.5.76-.73,1.25-.53s.73.76.53,1.25-.76.73-1.25.53-.73-.76-.53-1.25Z"/>
            <path class="cls-1" d="M312.15,42.49c.2-.49.76-.73,1.25-.53s.73.76.54,1.25-.76.73-1.26.53-.73-.76-.53-1.26Z"/>
            <path class="cls-1" d="M288.75,66.51c.2-.49.76-.73,1.26-.53s.73.76.53,1.25-.76.73-1.25.53-.74-.76-.54-1.26Z"/>
            <path class="cls-1" d="M220.62,74.44c.26-.64.98-.94,1.61-.69s.94.98.69,1.61-.98.94-1.61.69-.94-.98-.68-1.61Z"/>
            <path class="cls-1" d="M191.46,73.36c.26-.64.98-.94,1.62-.69s.94.98.69,1.61-.98.94-1.61.69-.95-.98-.69-1.62Z"/>
            <path class="cls-1" d="M201.16,114.23c.26-.64.98-.94,1.61-.69s.95.98.69,1.62-.98.94-1.62.69-.94-.98-.68-1.61Z"/>
            <path class="cls-1" d="M197.53,139.3c.26-.64.98-.94,1.61-.68s.94.98.69,1.61-.98.94-1.61.69-.94-.98-.69-1.61Z"/>
            <path class="cls-1" d="M186.33,113.93c.26-.63.98-.94,1.61-.68s.94.98.69,1.61-.98.94-1.61.69-.94-.98-.69-1.61Z"/>
            <path class="cls-1" d="M173.67,6.13c1.26-3.13,4.82-4.65,7.96-3.38s4.65,4.83,3.38,7.96c-1.26,3.13-4.83,4.65-7.96,3.39s-4.65-4.83-3.39-7.96Z"/>
            <path class="cls-1" d="M177.86,100.68c.5-1.24,1.91-1.84,3.15-1.34s1.84,1.91,1.34,3.15-1.91,1.84-3.15,1.34-1.84-1.91-1.34-3.15Z"/>
            <path class="cls-1" d="M208.99,101.52c.2-.5.76-.73,1.26-.53s.73.76.53,1.26-.76.73-1.25.53-.73-.76-.53-1.25Z"/>
            <path class="cls-1" d="M181.77,53.63c.2-.49.76-.73,1.26-.53s.73.76.53,1.25-.76.73-1.25.53-.73-.76-.53-1.26Z"/>
            <path class="cls-1" d="M181.02,66.42c.2-.5.76-.73,1.26-.53s.73.76.53,1.26-.76.73-1.25.53-.73-.76-.54-1.25Z"/>
            <path class="cls-1" d="M178.95,127c.2-.49.76-.73,1.25-.53s.73.76.54,1.25-.76.73-1.25.53-.73-.76-.53-1.25Z"/>
            <path class="cls-1" d="M164.38,126.98c.13-.32.49-.48.81-.35s.48.49.35.81-.49.48-.81.35-.48-.49-.35-.81Z"/>
            <path class="cls-1" d="M172.75,81.76c.5-1.24,1.91-1.84,3.15-1.34s1.84,1.91,1.34,3.15-1.91,1.84-3.15,1.34-1.84-1.91-1.34-3.15Z"/>
            <path class="cls-1" d="M202.6,80.58c.16-.39.6-.58,1-.42s.58.6.42,1-.6.58-1,.42-.58-.6-.42-1Z"/>
            <path class="cls-1" d="M132.52,107.59c.26-.64.97-.94,1.61-.69s.94.98.69,1.61-.98.94-1.61.68-.94-.98-.69-1.61Z"/>
            <path class="cls-1" d="M18.01,149.77c.26-.63.98-.94,1.61-.68s.94.98.69,1.61-.98.94-1.61.69-.94-.98-.69-1.62Z"/>
            <path class="cls-1" d="M164.41,101.1c.18-.45.69-.67,1.15-.49s.66.69.48,1.14-.69.67-1.14.49-.67-.69-.49-1.14Z"/>
            <path class="cls-1" d="M137.75,92.26c.18-.45.69-.67,1.15-.49s.67.69.49,1.14-.7.67-1.14.49-.67-.7-.49-1.15Z"/>
            <path class="cls-1" d="M208.17,27.96c.5-1.24,1.91-1.84,3.15-1.34s1.84,1.91,1.34,3.15-1.91,1.84-3.15,1.34-1.83-1.91-1.34-3.15Z"/>
            <path class="cls-1" d="M143.5,49.41c.26-.63.98-.94,1.62-.69s.94.98.68,1.61-.98.94-1.61.69-.94-.98-.69-1.61Z"/>
            <path class="cls-1" d="M124.22,10.98c.25-.63.98-.94,1.61-.68s.94.98.69,1.61-.98.94-1.62.69-.94-.98-.69-1.62Z"/>
            <path class="cls-1" d="M74.23,81.71c.86-2.14,3.29-3.17,5.42-2.3s3.16,3.28,2.3,5.42-3.28,3.16-5.42,2.3-3.16-3.29-2.3-5.42Z"/>
            <path class="cls-1" d="M.3,118.8c.86-2.13,3.29-3.17,5.42-2.3s3.16,3.29,2.3,5.42-3.29,3.16-5.42,2.3-3.16-3.29-2.3-5.42Z"/>
            <path class="cls-1" d="M118.77,84.87c.5-1.24,1.91-1.84,3.15-1.34s1.84,1.91,1.34,3.15-1.91,1.84-3.15,1.34-1.84-1.91-1.34-3.15Z"/>
            <path class="cls-1" d="M66.35,162.76c.5-1.24,1.91-1.84,3.15-1.34s1.84,1.91,1.34,3.15-1.91,1.84-3.15,1.34-1.84-1.91-1.34-3.15Z"/>
            <path class="cls-1" d="M97.68,96.45c.26-.64.98-.94,1.62-.69s.94.98.68,1.61-.98.94-1.61.69-.94-.98-.69-1.61Z"/>
            <path class="cls-1" d="M102.71,145.5c.26-.63.98-.94,1.61-.68s.94.98.69,1.61-.98.94-1.61.69-.94-.98-.69-1.62Z"/>
            <path class="cls-1" d="M57.22,142.83c.26-.63.98-.94,1.61-.69s.94.98.69,1.61-.98.94-1.61.69-.94-.98-.69-1.62Z"/>
            <path class="cls-1" d="M100.58,46.89c.26-.64.98-.94,1.61-.69s.94.98.69,1.61-.98.94-1.61.69-.94-.98-.69-1.61Z"/>
            <path class="cls-1" d="M77.31,57.58c.5-1.24,1.91-1.84,3.15-1.34s1.84,1.91,1.34,3.15-1.91,1.84-3.15,1.34-1.84-1.91-1.34-3.15Z"/>
            <path class="cls-1" d="M100.94,21.67c.5-1.24,1.91-1.84,3.15-1.34s1.84,1.91,1.34,3.15-1.91,1.84-3.15,1.34-1.84-1.91-1.34-3.15Z"/>
            <path class="cls-1" d="M68.66,123.36c.5-1.24,1.91-1.84,3.15-1.34s1.84,1.91,1.34,3.15-1.91,1.84-3.15,1.34-1.84-1.91-1.34-3.15Z"/>
            <path class="cls-1" d="M21.39,91.97c.26-.64.98-.94,1.62-.68s.94.98.69,1.61-.98.94-1.61.69-.95-.98-.69-1.62Z"/>
            <path class="cls-1" d="M54.76,93.93c.26-.64.98-.94,1.61-.69s.94.98.69,1.61-.98.94-1.61.68-.94-.98-.69-1.61Z"/>
            <path class="cls-1" d="M91.4,124.7c.5-1.24,1.91-1.84,3.15-1.34s1.84,1.91,1.34,3.15-1.91,1.84-3.15,1.34-1.84-1.91-1.34-3.15Z"/>
          </g>
        </g>
      </g>
    </g>
  </g>
</svg>